<mxfile host="65bd71144e">
    <diagram id="C5RBs43oDa-KdzZeNtuy" name="Page-1">
        <mxGraphModel dx="1767" dy="1886" grid="1" gridSize="10" guides="1" tooltips="1" connect="1" arrows="1" fold="1" page="1" pageScale="1" pageWidth="827" pageHeight="1169" math="0" shadow="0">
            <root>
                <mxCell id="WIyWlLk6GJQsqaUBKTNV-0"/>
                <mxCell id="WIyWlLk6GJQsqaUBKTNV-1" parent="WIyWlLk6GJQsqaUBKTNV-0"/>
                <mxCell id="hHB7BAhLzImjpgOIz_nn-50" style="edgeStyle=orthogonalEdgeStyle;rounded=0;orthogonalLoop=1;jettySize=auto;html=1;exitX=0.5;exitY=1;exitDx=0;exitDy=0;entryX=0.639;entryY=0.01;entryDx=0;entryDy=0;entryPerimeter=0;" parent="WIyWlLk6GJQsqaUBKTNV-1" source="hHB7BAhLzImjpgOIz_nn-13" target="hHB7BAhLzImjpgOIz_nn-22" edge="1">
                    <mxGeometry relative="1" as="geometry"/>
                </mxCell>
                <mxCell id="hHB7BAhLzImjpgOIz_nn-51" style="edgeStyle=orthogonalEdgeStyle;rounded=0;orthogonalLoop=1;jettySize=auto;html=1;exitX=0;exitY=0.75;exitDx=0;exitDy=0;entryX=1;entryY=0.5;entryDx=0;entryDy=0;" parent="WIyWlLk6GJQsqaUBKTNV-1" source="hHB7BAhLzImjpgOIz_nn-13" target="hHB7BAhLzImjpgOIz_nn-23" edge="1">
                    <mxGeometry relative="1" as="geometry"/>
                </mxCell>
                <mxCell id="hHB7BAhLzImjpgOIz_nn-52" style="edgeStyle=orthogonalEdgeStyle;rounded=0;orthogonalLoop=1;jettySize=auto;html=1;exitX=0;exitY=0.5;exitDx=0;exitDy=0;entryX=1;entryY=0.25;entryDx=0;entryDy=0;" parent="WIyWlLk6GJQsqaUBKTNV-1" source="hHB7BAhLzImjpgOIz_nn-13" target="hHB7BAhLzImjpgOIz_nn-24" edge="1">
                    <mxGeometry relative="1" as="geometry"/>
                </mxCell>
                <mxCell id="hHB7BAhLzImjpgOIz_nn-13" value="&lt;p style=&quot;margin: 0px ; margin-top: 4px ; text-align: center&quot;&gt;&lt;b&gt;Fleet&lt;/b&gt;&lt;/p&gt;&lt;hr size=&quot;1&quot;&gt;&lt;p style=&quot;margin: 0px ; margin-left: 4px&quot;&gt;+ balanced_robots:list&lt;/p&gt;&lt;p style=&quot;margin: 0px ; margin-left: 4px&quot;&gt;+ glass_canon_robots:list&lt;/p&gt;&lt;p style=&quot;margin: 0px ; margin-left: 4px&quot;&gt;+ tanky_robots:list&lt;/p&gt;&lt;hr size=&quot;1&quot;&gt;&lt;p style=&quot;margin: 0px ; margin-left: 4px&quot;&gt;+ __init__(self)&lt;/p&gt;&lt;p style=&quot;margin: 0px ; margin-left: 4px&quot;&gt;+creat_fleet(self):void&lt;/p&gt;" style="verticalAlign=top;align=left;overflow=fill;fontSize=12;fontFamily=Helvetica;html=1;" parent="WIyWlLk6GJQsqaUBKTNV-1" vertex="1">
                    <mxGeometry x="80" width="177" height="140" as="geometry"/>
                </mxCell>
                <mxCell id="hHB7BAhLzImjpgOIz_nn-18" value="&lt;p style=&quot;margin: 0px ; margin-top: 4px ; text-align: center&quot;&gt;&lt;br&gt;&lt;b&gt;Battlefield&lt;/b&gt;&lt;/p&gt;&lt;p style=&quot;margin: 0px ; margin-top: 4px ; text-align: center&quot;&gt;&lt;b&gt;Fleet&lt;/b&gt;&lt;/p&gt;&lt;p style=&quot;margin: 0px ; margin-top: 4px ; text-align: center&quot;&gt;&lt;b&gt;Herd&lt;/b&gt;&lt;/p&gt;&lt;p style=&quot;margin: 4px 0px 0px&quot;&gt;&lt;b&gt;+ __innit__(self)&lt;/b&gt;&lt;/p&gt;&lt;p style=&quot;margin: 4px 0px 0px&quot;&gt;&lt;b&gt;+run_game(self): void&lt;/b&gt;&lt;/p&gt;&lt;p style=&quot;margin: 4px 0px 0px&quot;&gt;&lt;b&gt;+display_welcome(self): void&lt;/b&gt;&lt;/p&gt;&lt;p style=&quot;margin: 4px 0px 0px&quot;&gt;&lt;b&gt;+dino_turn(self, dinosaur):void&lt;/b&gt;&lt;/p&gt;&lt;p style=&quot;margin: 4px 0px 0px&quot;&gt;&lt;b&gt;+robo_turn(self, robot)&lt;/b&gt;&lt;/p&gt;&lt;p style=&quot;margin: 4px 0px 0px&quot;&gt;&lt;b&gt;+show_dino_opponent_options(self):void&lt;/b&gt;&lt;/p&gt;&lt;p style=&quot;margin: 4px 0px 0px&quot;&gt;&lt;b&gt;+show_robo_opponent_options(self): void&lt;/b&gt;&lt;/p&gt;&lt;p style=&quot;margin: 4px 0px 0px&quot;&gt;&lt;b&gt;+display_winners(self):void&lt;/b&gt;&lt;/p&gt;" style="verticalAlign=top;align=left;overflow=fill;fontSize=12;fontFamily=Helvetica;html=1;" parent="WIyWlLk6GJQsqaUBKTNV-1" vertex="1">
                    <mxGeometry x="280" y="10" width="280" height="290" as="geometry"/>
                </mxCell>
                <mxCell id="hHB7BAhLzImjpgOIz_nn-44" style="edgeStyle=orthogonalEdgeStyle;rounded=0;orthogonalLoop=1;jettySize=auto;html=1;exitX=0.5;exitY=1;exitDx=0;exitDy=0;entryX=0.373;entryY=-0.005;entryDx=0;entryDy=0;entryPerimeter=0;" parent="WIyWlLk6GJQsqaUBKTNV-1" source="hHB7BAhLzImjpgOIz_nn-19" target="hHB7BAhLzImjpgOIz_nn-26" edge="1">
                    <mxGeometry relative="1" as="geometry"/>
                </mxCell>
                <mxCell id="hHB7BAhLzImjpgOIz_nn-45" style="edgeStyle=orthogonalEdgeStyle;rounded=0;orthogonalLoop=1;jettySize=auto;html=1;exitX=1;exitY=0.75;exitDx=0;exitDy=0;entryX=0;entryY=0.25;entryDx=0;entryDy=0;" parent="WIyWlLk6GJQsqaUBKTNV-1" source="hHB7BAhLzImjpgOIz_nn-19" target="hHB7BAhLzImjpgOIz_nn-28" edge="1">
                    <mxGeometry relative="1" as="geometry"/>
                </mxCell>
                <mxCell id="hHB7BAhLzImjpgOIz_nn-47" style="edgeStyle=orthogonalEdgeStyle;rounded=0;orthogonalLoop=1;jettySize=auto;html=1;exitX=1;exitY=0.5;exitDx=0;exitDy=0;entryX=0;entryY=0.25;entryDx=0;entryDy=0;" parent="WIyWlLk6GJQsqaUBKTNV-1" source="hHB7BAhLzImjpgOIz_nn-19" target="hHB7BAhLzImjpgOIz_nn-29" edge="1">
                    <mxGeometry relative="1" as="geometry"/>
                </mxCell>
                <mxCell id="hHB7BAhLzImjpgOIz_nn-19" value="&lt;p style=&quot;margin: 0px ; margin-top: 4px ; text-align: center&quot;&gt;&lt;b&gt;Herd&lt;/b&gt;&lt;/p&gt;&lt;hr size=&quot;1&quot;&gt;&lt;p style=&quot;margin: 0px ; margin-left: 4px&quot;&gt;+ balanced_dinosaurs: List&lt;/p&gt;&lt;p style=&quot;margin: 0px ; margin-left: 4px&quot;&gt;+ glass_canon_dinosaurs: List&lt;/p&gt;&lt;p style=&quot;margin: 0px ; margin-left: 4px&quot;&gt;+ tanky_dinosaurs:List&lt;/p&gt;&lt;hr size=&quot;1&quot;&gt;&lt;p style=&quot;margin: 0px ; margin-left: 4px&quot;&gt;+ __init__(self)&lt;/p&gt;&lt;p style=&quot;margin: 0px ; margin-left: 4px&quot;&gt;+create_herd(self): void&lt;/p&gt;" style="verticalAlign=top;align=left;overflow=fill;fontSize=12;fontFamily=Helvetica;html=1;" parent="WIyWlLk6GJQsqaUBKTNV-1" vertex="1">
                    <mxGeometry x="580" width="177" height="140" as="geometry"/>
                </mxCell>
                <mxCell id="hHB7BAhLzImjpgOIz_nn-53" style="edgeStyle=orthogonalEdgeStyle;rounded=0;orthogonalLoop=1;jettySize=auto;html=1;exitX=0.75;exitY=1;exitDx=0;exitDy=0;entryX=0.75;entryY=0;entryDx=0;entryDy=0;" parent="WIyWlLk6GJQsqaUBKTNV-1" source="hHB7BAhLzImjpgOIz_nn-22" target="hHB7BAhLzImjpgOIz_nn-31" edge="1">
                    <mxGeometry relative="1" as="geometry"/>
                </mxCell>
                <mxCell id="hHB7BAhLzImjpgOIz_nn-55" style="edgeStyle=orthogonalEdgeStyle;rounded=0;orthogonalLoop=1;jettySize=auto;html=1;exitX=0;exitY=0.75;exitDx=0;exitDy=0;entryX=1;entryY=0.5;entryDx=0;entryDy=0;" parent="WIyWlLk6GJQsqaUBKTNV-1" source="hHB7BAhLzImjpgOIz_nn-22" target="hHB7BAhLzImjpgOIz_nn-54" edge="1">
                    <mxGeometry relative="1" as="geometry"/>
                </mxCell>
                <mxCell id="hHB7BAhLzImjpgOIz_nn-22" value="&lt;p style=&quot;margin: 0px ; margin-top: 4px ; text-align: center&quot;&gt;&lt;b&gt;Roomba&lt;/b&gt;&lt;/p&gt;&lt;hr size=&quot;1&quot;&gt;&lt;p style=&quot;margin: 0px ; margin-left: 4px&quot;&gt;+ name: string&lt;/p&gt;&lt;p style=&quot;margin: 0px ; margin-left: 4px&quot;&gt;+ health: int&lt;/p&gt;&lt;p style=&quot;margin: 0px ; margin-left: 4px&quot;&gt;+ armor +int&lt;/p&gt;&lt;p style=&quot;margin: 0px ; margin-left: 4px&quot;&gt;+ weapon: Weapon&lt;/p&gt;&lt;p style=&quot;margin: 0px ; margin-left: 4px&quot;&gt;+ battery_charge: int&lt;br&gt;&lt;/p&gt;&lt;hr size=&quot;1&quot;&gt;&lt;p style=&quot;margin: 0px ; margin-left: 4px&quot;&gt;+ __init(self)__&lt;/p&gt;&lt;p style=&quot;margin: 0px ; margin-left: 4px&quot;&gt;+ attack(self, dinosaur)&lt;/p&gt;&lt;p style=&quot;margin: 0px ; margin-left: 4px&quot;&gt;+ defend(self, dinosaur)&lt;/p&gt;" style="verticalAlign=top;align=left;overflow=fill;fontSize=12;fontFamily=Helvetica;html=1;" parent="WIyWlLk6GJQsqaUBKTNV-1" vertex="1">
                    <mxGeometry x="80" y="180" width="137" height="160" as="geometry"/>
                </mxCell>
                <mxCell id="hHB7BAhLzImjpgOIz_nn-67" style="edgeStyle=orthogonalEdgeStyle;rounded=0;orthogonalLoop=1;jettySize=auto;html=1;exitX=0;exitY=0.75;exitDx=0;exitDy=0;entryX=0.5;entryY=1;entryDx=0;entryDy=0;" parent="WIyWlLk6GJQsqaUBKTNV-1" source="hHB7BAhLzImjpgOIz_nn-23" target="hHB7BAhLzImjpgOIz_nn-30" edge="1">
                    <mxGeometry relative="1" as="geometry"/>
                </mxCell>
                <mxCell id="hHB7BAhLzImjpgOIz_nn-68" style="edgeStyle=orthogonalEdgeStyle;rounded=0;orthogonalLoop=1;jettySize=auto;html=1;exitX=0;exitY=1;exitDx=0;exitDy=0;entryX=0;entryY=0.5;entryDx=0;entryDy=0;" parent="WIyWlLk6GJQsqaUBKTNV-1" source="hHB7BAhLzImjpgOIz_nn-23" target="hHB7BAhLzImjpgOIz_nn-56" edge="1">
                    <mxGeometry relative="1" as="geometry"/>
                </mxCell>
                <mxCell id="hHB7BAhLzImjpgOIz_nn-23" value="&lt;p style=&quot;margin: 0px ; margin-top: 4px ; text-align: center&quot;&gt;&lt;b&gt;Armored Roomba +&lt;/b&gt;&lt;/p&gt;&lt;hr size=&quot;1&quot;&gt;&lt;p style=&quot;margin: 0px ; margin-left: 4px&quot;&gt;+&amp;nbsp;&lt;span&gt;name: string&lt;/span&gt;&lt;/p&gt;&lt;p style=&quot;margin: 0px 0px 0px 4px&quot;&gt;+ health: int&lt;/p&gt;&lt;p style=&quot;margin: 0px 0px 0px 4px&quot;&gt;+ armor +int&lt;/p&gt;&lt;p style=&quot;margin: 0px ; margin-left: 4px&quot;&gt;&lt;span&gt;+ weapon: Weapon&lt;/span&gt;&amp;nbsp;&lt;/p&gt;&lt;p style=&quot;margin: 0px ; margin-left: 4px&quot;&gt;+ battery_charge: int&lt;/p&gt;&lt;hr size=&quot;1&quot;&gt;&lt;p style=&quot;margin: 0px 0px 0px 4px&quot;&gt;+ __init(self)__&lt;/p&gt;&lt;p style=&quot;margin: 0px 0px 0px 4px&quot;&gt;+ attack(self, dinosaur)&lt;/p&gt;&lt;p style=&quot;margin: 0px 0px 0px 4px&quot;&gt;+ defend(self, dinosaur)&lt;/p&gt;" style="verticalAlign=top;align=left;overflow=fill;fontSize=12;fontFamily=Helvetica;html=1;" parent="WIyWlLk6GJQsqaUBKTNV-1" vertex="1">
                    <mxGeometry x="-120" y="180" width="137" height="160" as="geometry"/>
                </mxCell>
                <mxCell id="hHB7BAhLzImjpgOIz_nn-57" style="edgeStyle=orthogonalEdgeStyle;rounded=0;orthogonalLoop=1;jettySize=auto;html=1;exitX=0;exitY=0.25;exitDx=0;exitDy=0;entryX=0.5;entryY=0;entryDx=0;entryDy=0;" parent="WIyWlLk6GJQsqaUBKTNV-1" source="hHB7BAhLzImjpgOIz_nn-24" target="hHB7BAhLzImjpgOIz_nn-56" edge="1">
                    <mxGeometry relative="1" as="geometry"/>
                </mxCell>
                <mxCell id="hHB7BAhLzImjpgOIz_nn-69" style="edgeStyle=orthogonalEdgeStyle;rounded=0;orthogonalLoop=1;jettySize=auto;html=1;exitX=0;exitY=0;exitDx=0;exitDy=0;entryX=0;entryY=0.5;entryDx=0;entryDy=0;" parent="WIyWlLk6GJQsqaUBKTNV-1" source="hHB7BAhLzImjpgOIz_nn-24" target="hHB7BAhLzImjpgOIz_nn-30" edge="1">
                    <mxGeometry relative="1" as="geometry"/>
                </mxCell>
                <mxCell id="hHB7BAhLzImjpgOIz_nn-24" value="&lt;p style=&quot;margin: 0px ; margin-top: 4px ; text-align: center&quot;&gt;&lt;b&gt;Mega Roomba ++&lt;/b&gt;&lt;/p&gt;&lt;hr size=&quot;1&quot;&gt;&lt;p style=&quot;margin: 0px 0px 0px 4px&quot;&gt;+&amp;nbsp;name: string&lt;/p&gt;&lt;p style=&quot;margin: 0px 0px 0px 4px&quot;&gt;+ health: int&lt;/p&gt;&lt;p style=&quot;margin: 0px 0px 0px 4px&quot;&gt;+ armor +int&lt;/p&gt;&lt;p style=&quot;margin: 0px 0px 0px 4px&quot;&gt;+ weapon: Weapon&lt;/p&gt;&lt;p style=&quot;margin: 0px 0px 0px 4px&quot;&gt;+ battery_charge: int&lt;br&gt;&lt;/p&gt;&lt;hr size=&quot;1&quot;&gt;&lt;p style=&quot;margin: 0px 0px 0px 4px&quot;&gt;+ __init(self)__&lt;/p&gt;&lt;p style=&quot;margin: 0px 0px 0px 4px&quot;&gt;+ attack(self, dinosaur)&lt;/p&gt;&lt;p style=&quot;margin: 0px 0px 0px 4px&quot;&gt;+ defend(self, dinosaur)&lt;/p&gt;" style="verticalAlign=top;align=left;overflow=fill;fontSize=12;fontFamily=Helvetica;html=1;" parent="WIyWlLk6GJQsqaUBKTNV-1" vertex="1">
                    <mxGeometry x="-120" y="-20" width="137" height="160" as="geometry"/>
                </mxCell>
                <mxCell id="hHB7BAhLzImjpgOIz_nn-34" style="edgeStyle=orthogonalEdgeStyle;rounded=0;orthogonalLoop=1;jettySize=auto;html=1;exitX=0.25;exitY=1;exitDx=0;exitDy=0;entryX=0.25;entryY=0;entryDx=0;entryDy=0;" parent="WIyWlLk6GJQsqaUBKTNV-1" source="hHB7BAhLzImjpgOIz_nn-26" target="hHB7BAhLzImjpgOIz_nn-32" edge="1">
                    <mxGeometry relative="1" as="geometry"/>
                </mxCell>
                <mxCell id="hHB7BAhLzImjpgOIz_nn-37" style="edgeStyle=orthogonalEdgeStyle;rounded=0;orthogonalLoop=1;jettySize=auto;html=1;exitX=1;exitY=0.75;exitDx=0;exitDy=0;entryX=0;entryY=0.5;entryDx=0;entryDy=0;" parent="WIyWlLk6GJQsqaUBKTNV-1" source="hHB7BAhLzImjpgOIz_nn-26" target="hHB7BAhLzImjpgOIz_nn-33" edge="1">
                    <mxGeometry relative="1" as="geometry"/>
                </mxCell>
                <mxCell id="hHB7BAhLzImjpgOIz_nn-26" value="&lt;p style=&quot;margin: 0px ; margin-top: 4px ; text-align: center&quot;&gt;&lt;b&gt;Dilophosaurus&lt;/b&gt;&lt;br&gt;&lt;/p&gt;&lt;hr size=&quot;1&quot;&gt;&lt;p style=&quot;margin: 0px ; margin-left: 4px&quot;&gt;+ name: string&lt;/p&gt;&lt;p style=&quot;margin: 0px ; margin-left: 4px&quot;&gt;+ health: int&lt;/p&gt;&lt;p style=&quot;margin: 0px ; margin-left: 4px&quot;&gt;+ scales: int&lt;/p&gt;&lt;p style=&quot;margin: 0px ; margin-left: 4px&quot;&gt;+ attack_power: int&lt;/p&gt;&lt;p style=&quot;margin: 0px ; margin-left: 4px&quot;&gt;+ stamina: int&lt;/p&gt;&lt;hr size=&quot;1&quot;&gt;&lt;p style=&quot;margin: 0px ; margin-left: 4px&quot;&gt;+ __init__(self, name,&lt;/p&gt;&lt;p style=&quot;margin: 0px ; margin-left: 4px&quot;&gt;attack_power)&lt;/p&gt;&lt;p style=&quot;margin: 0px ; margin-left: 4px&quot;&gt;+ attack(self, robot): void&lt;/p&gt;&lt;p style=&quot;margin: 0px ; margin-left: 4px&quot;&gt;+ defend(self, robot) void&lt;/p&gt;" style="verticalAlign=top;align=left;overflow=fill;fontSize=12;fontFamily=Helvetica;html=1;" parent="WIyWlLk6GJQsqaUBKTNV-1" vertex="1">
                    <mxGeometry x="620" y="180" width="137" height="170" as="geometry"/>
                </mxCell>
                <mxCell id="hHB7BAhLzImjpgOIz_nn-42" style="edgeStyle=orthogonalEdgeStyle;rounded=0;orthogonalLoop=1;jettySize=auto;html=1;exitX=1;exitY=0.75;exitDx=0;exitDy=0;entryX=0.5;entryY=1;entryDx=0;entryDy=0;" parent="WIyWlLk6GJQsqaUBKTNV-1" source="hHB7BAhLzImjpgOIz_nn-28" target="hHB7BAhLzImjpgOIz_nn-38" edge="1">
                    <mxGeometry relative="1" as="geometry"/>
                </mxCell>
                <mxCell id="hHB7BAhLzImjpgOIz_nn-65" style="edgeStyle=orthogonalEdgeStyle;rounded=0;orthogonalLoop=1;jettySize=auto;html=1;exitX=1;exitY=1;exitDx=0;exitDy=0;entryX=1;entryY=0.5;entryDx=0;entryDy=0;" parent="WIyWlLk6GJQsqaUBKTNV-1" source="hHB7BAhLzImjpgOIz_nn-28" target="hHB7BAhLzImjpgOIz_nn-39" edge="1">
                    <mxGeometry relative="1" as="geometry"/>
                </mxCell>
                <mxCell id="hHB7BAhLzImjpgOIz_nn-28" value="&lt;p style=&quot;margin: 0px ; margin-top: 4px ; text-align: center&quot;&gt;&lt;b&gt;Allosaurus&lt;/b&gt;&lt;/p&gt;&lt;hr size=&quot;1&quot;&gt;&lt;p style=&quot;margin: 0px ; margin-left: 4px&quot;&gt;+ name: string&lt;/p&gt;&lt;p style=&quot;margin: 0px ; margin-left: 4px&quot;&gt;+ health: int&lt;/p&gt;&lt;p style=&quot;margin: 0px ; margin-left: 4px&quot;&gt;+ scales: int&lt;/p&gt;&lt;p style=&quot;margin: 0px ; margin-left: 4px&quot;&gt;+ attack_power:&amp;nbsp;&lt;/p&gt;&lt;p style=&quot;margin: 0px ; margin-left: 4px&quot;&gt;+ stamina_int&lt;/p&gt;&lt;hr size=&quot;1&quot;&gt;&lt;p style=&quot;margin: 0px ; margin-left: 4px&quot;&gt;+ __init__(self, name,&lt;/p&gt;&lt;p style=&quot;margin: 0px ; margin-left: 4px&quot;&gt;attack_power)&lt;/p&gt;&lt;p style=&quot;margin: 0px ; margin-left: 4px&quot;&gt;+ attack(self, robot): void&lt;/p&gt;&lt;p style=&quot;margin: 0px ; margin-left: 4px&quot;&gt;+ defend(self, robot) void&lt;/p&gt;" style="verticalAlign=top;align=left;overflow=fill;fontSize=12;fontFamily=Helvetica;html=1;" parent="WIyWlLk6GJQsqaUBKTNV-1" vertex="1">
                    <mxGeometry x="827" y="180" width="137" height="170" as="geometry"/>
                </mxCell>
                <mxCell id="hHB7BAhLzImjpgOIz_nn-40" style="edgeStyle=orthogonalEdgeStyle;rounded=0;orthogonalLoop=1;jettySize=auto;html=1;exitX=1;exitY=0.25;exitDx=0;exitDy=0;entryX=0.5;entryY=0;entryDx=0;entryDy=0;" parent="WIyWlLk6GJQsqaUBKTNV-1" source="hHB7BAhLzImjpgOIz_nn-29" target="hHB7BAhLzImjpgOIz_nn-39" edge="1">
                    <mxGeometry relative="1" as="geometry"/>
                </mxCell>
                <mxCell id="hHB7BAhLzImjpgOIz_nn-64" style="edgeStyle=orthogonalEdgeStyle;rounded=0;orthogonalLoop=1;jettySize=auto;html=1;exitX=1;exitY=0;exitDx=0;exitDy=0;entryX=1;entryY=0.5;entryDx=0;entryDy=0;" parent="WIyWlLk6GJQsqaUBKTNV-1" source="hHB7BAhLzImjpgOIz_nn-29" target="hHB7BAhLzImjpgOIz_nn-38" edge="1">
                    <mxGeometry relative="1" as="geometry"/>
                </mxCell>
                <mxCell id="hHB7BAhLzImjpgOIz_nn-29" value="&lt;p style=&quot;margin: 0px ; margin-top: 4px ; text-align: center&quot;&gt;&lt;b&gt;Coelophysis&lt;/b&gt;&lt;br&gt;&lt;/p&gt;&lt;hr size=&quot;1&quot;&gt;&lt;p style=&quot;margin: 0px ; margin-left: 4px&quot;&gt;+ name: string&lt;/p&gt;&lt;p style=&quot;margin: 0px ; margin-left: 4px&quot;&gt;+ health: int&lt;/p&gt;&lt;p style=&quot;margin: 0px ; margin-left: 4px&quot;&gt;+ scales: int&lt;/p&gt;&lt;p style=&quot;margin: 0px ; margin-left: 4px&quot;&gt;+ attack_power:&amp;nbsp;&lt;/p&gt;&lt;p style=&quot;margin: 0px ; margin-left: 4px&quot;&gt;+ stamina: int&lt;/p&gt;&lt;hr size=&quot;1&quot;&gt;&lt;p style=&quot;margin: 0px ; margin-left: 4px&quot;&gt;+ __init__(self, name,&lt;/p&gt;&lt;p style=&quot;margin: 0px ; margin-left: 4px&quot;&gt;attack_power)&lt;/p&gt;&lt;p style=&quot;margin: 0px ; margin-left: 4px&quot;&gt;+ attack(self, robot): void&lt;/p&gt;&lt;p style=&quot;margin: 0px ; margin-left: 4px&quot;&gt;+ defend(self, robot) void&lt;/p&gt;" style="verticalAlign=top;align=left;overflow=fill;fontSize=12;fontFamily=Helvetica;html=1;" parent="WIyWlLk6GJQsqaUBKTNV-1" vertex="1">
                    <mxGeometry x="827" y="-30" width="137" height="170" as="geometry"/>
                </mxCell>
                <mxCell id="hHB7BAhLzImjpgOIz_nn-30" value="&lt;p style=&quot;margin: 0px ; margin-top: 4px ; text-align: center&quot;&gt;&lt;b&gt;Debris Canon&lt;/b&gt;&lt;/p&gt;&lt;hr size=&quot;1&quot;&gt;+ name: string&lt;br&gt;+ attack_power: int&lt;br&gt;&lt;hr size=&quot;1&quot;&gt;&lt;div style=&quot;height: 2px&quot;&gt;+ __init__(self, name,&lt;/div&gt;&lt;div style=&quot;height: 2px&quot;&gt;&lt;br&gt;&lt;/div&gt;&lt;div style=&quot;height: 2px&quot;&gt;&lt;br&gt;&lt;/div&gt;&lt;div style=&quot;height: 2px&quot;&gt;&lt;br&gt;&lt;/div&gt;&lt;div style=&quot;height: 2px&quot;&gt;&lt;br&gt;&lt;/div&gt;&lt;div style=&quot;height: 2px&quot;&gt;&lt;br&gt;&lt;/div&gt;&lt;div style=&quot;height: 2px&quot;&gt;&lt;br&gt;&lt;/div&gt;&lt;div style=&quot;height: 2px&quot;&gt;&lt;br&gt;&lt;/div&gt;&lt;div style=&quot;height: 2px&quot;&gt;&lt;br&gt;&lt;/div&gt;&lt;div style=&quot;height: 2px&quot;&gt;attack_power)&lt;/div&gt;" style="verticalAlign=top;align=left;overflow=fill;fontSize=12;fontFamily=Helvetica;html=1;" parent="WIyWlLk6GJQsqaUBKTNV-1" vertex="1">
                    <mxGeometry x="-290" y="180" width="140" height="120" as="geometry"/>
                </mxCell>
                <mxCell id="hHB7BAhLzImjpgOIz_nn-31" value="&lt;p style=&quot;margin: 0px ; margin-top: 4px ; text-align: center&quot;&gt;&lt;b&gt;Debris Blaster&lt;/b&gt;&lt;/p&gt;&lt;hr size=&quot;1&quot;&gt;+ name: string&lt;br&gt;+ attack_power: int&lt;br&gt;&lt;hr size=&quot;1&quot;&gt;&lt;div style=&quot;height: 2px&quot;&gt;+ __init__(self, name,&lt;/div&gt;&lt;div style=&quot;height: 2px&quot;&gt;&lt;br&gt;&lt;/div&gt;&lt;div style=&quot;height: 2px&quot;&gt;&lt;br&gt;&lt;/div&gt;&lt;div style=&quot;height: 2px&quot;&gt;&lt;br&gt;&lt;/div&gt;&lt;div style=&quot;height: 2px&quot;&gt;&lt;br&gt;&lt;/div&gt;&lt;div style=&quot;height: 2px&quot;&gt;&lt;br&gt;&lt;/div&gt;&lt;div style=&quot;height: 2px&quot;&gt;&lt;br&gt;&lt;/div&gt;&lt;div style=&quot;height: 2px&quot;&gt;&lt;br&gt;&lt;/div&gt;&lt;div style=&quot;height: 2px&quot;&gt;&lt;br&gt;&lt;/div&gt;&lt;div style=&quot;height: 2px&quot;&gt;attack_power)&lt;/div&gt;" style="verticalAlign=top;align=left;overflow=fill;fontSize=12;fontFamily=Helvetica;html=1;" parent="WIyWlLk6GJQsqaUBKTNV-1" vertex="1">
                    <mxGeometry x="77" y="360" width="140" height="120" as="geometry"/>
                </mxCell>
                <mxCell id="hHB7BAhLzImjpgOIz_nn-32" value="&lt;p style=&quot;margin: 0px ; margin-top: 4px ; text-align: center&quot;&gt;&lt;b&gt;Claws&lt;/b&gt;&lt;/p&gt;&lt;hr size=&quot;1&quot;&gt;&lt;p style=&quot;margin: 0px ; margin-left: 4px&quot;&gt;+ name: string&lt;/p&gt;&lt;p style=&quot;margin: 0px ; margin-left: 4px&quot;&gt;+ attack_power: int&lt;/p&gt;&lt;hr size=&quot;1&quot;&gt;&lt;p style=&quot;margin: 0px ; margin-left: 4px&quot;&gt;+ __init__(self, name,&lt;/p&gt;&lt;p style=&quot;margin: 0px ; margin-left: 4px&quot;&gt;attack_power)&lt;/p&gt;" style="verticalAlign=top;align=left;overflow=fill;fontSize=12;fontFamily=Helvetica;html=1;" parent="WIyWlLk6GJQsqaUBKTNV-1" vertex="1">
                    <mxGeometry x="620" y="370" width="140" height="110" as="geometry"/>
                </mxCell>
                <mxCell id="hHB7BAhLzImjpgOIz_nn-33" value="&lt;p style=&quot;margin: 0px ; margin-top: 4px ; text-align: center&quot;&gt;&lt;b&gt;Spit&lt;/b&gt;&lt;/p&gt;&lt;hr size=&quot;1&quot;&gt;&lt;p style=&quot;margin: 0px ; margin-left: 4px&quot;&gt;+ name: string&lt;/p&gt;&lt;p style=&quot;margin: 0px ; margin-left: 4px&quot;&gt;+ attack_power: int&lt;/p&gt;&lt;hr size=&quot;1&quot;&gt;&lt;p style=&quot;margin: 0px ; margin-left: 4px&quot;&gt;+ __init__(self, name,&lt;/p&gt;&lt;p style=&quot;margin: 0px ; margin-left: 4px&quot;&gt;attack_power)&lt;/p&gt;" style="verticalAlign=top;align=left;overflow=fill;fontSize=12;fontFamily=Helvetica;html=1;" parent="WIyWlLk6GJQsqaUBKTNV-1" vertex="1">
                    <mxGeometry x="810" y="370" width="140" height="110" as="geometry"/>
                </mxCell>
                <mxCell id="hHB7BAhLzImjpgOIz_nn-38" value="&lt;p style=&quot;margin: 0px ; margin-top: 4px ; text-align: center&quot;&gt;&lt;b&gt;Big Claws&lt;/b&gt;&lt;/p&gt;&lt;hr size=&quot;1&quot;&gt;&lt;p style=&quot;margin: 0px ; margin-left: 4px&quot;&gt;+ name: string&lt;/p&gt;&lt;p style=&quot;margin: 0px ; margin-left: 4px&quot;&gt;+ attack_power: int&lt;/p&gt;&lt;hr size=&quot;1&quot;&gt;&lt;p style=&quot;margin: 0px ; margin-left: 4px&quot;&gt;+ __init__(self, name,&lt;/p&gt;&lt;p style=&quot;margin: 0px ; margin-left: 4px&quot;&gt;attack_power)&lt;/p&gt;" style="verticalAlign=top;align=left;overflow=fill;fontSize=12;fontFamily=Helvetica;html=1;" parent="WIyWlLk6GJQsqaUBKTNV-1" vertex="1">
                    <mxGeometry x="1000" y="180" width="140" height="110" as="geometry"/>
                </mxCell>
                <mxCell id="hHB7BAhLzImjpgOIz_nn-39" value="&lt;p style=&quot;margin: 0px ; margin-top: 4px ; text-align: center&quot;&gt;&lt;b&gt;Bite&lt;/b&gt;&lt;/p&gt;&lt;hr size=&quot;1&quot;&gt;&lt;p style=&quot;margin: 0px ; margin-left: 4px&quot;&gt;+ name: string&lt;/p&gt;&lt;p style=&quot;margin: 0px ; margin-left: 4px&quot;&gt;+ attack_power: int&lt;/p&gt;&lt;hr size=&quot;1&quot;&gt;&lt;p style=&quot;margin: 0px ; margin-left: 4px&quot;&gt;+ __init__(self, name,&lt;/p&gt;&lt;p style=&quot;margin: 0px ; margin-left: 4px&quot;&gt;attack_power)&lt;/p&gt;" style="verticalAlign=top;align=left;overflow=fill;fontSize=12;fontFamily=Helvetica;html=1;" parent="WIyWlLk6GJQsqaUBKTNV-1" vertex="1">
                    <mxGeometry x="1000" y="50" width="140" height="110" as="geometry"/>
                </mxCell>
                <mxCell id="hHB7BAhLzImjpgOIz_nn-54" value="&lt;p style=&quot;margin: 0px ; margin-top: 4px ; text-align: center&quot;&gt;&lt;b&gt;Debris Sucker&lt;/b&gt;&lt;/p&gt;&lt;hr size=&quot;1&quot;&gt;+ name: string&lt;br&gt;+ attack_power: int&lt;br&gt;&lt;hr size=&quot;1&quot;&gt;&lt;div style=&quot;height: 2px&quot;&gt;+ __init__(self, name,&lt;/div&gt;&lt;div style=&quot;height: 2px&quot;&gt;&lt;br&gt;&lt;/div&gt;&lt;div style=&quot;height: 2px&quot;&gt;&lt;br&gt;&lt;/div&gt;&lt;div style=&quot;height: 2px&quot;&gt;&lt;br&gt;&lt;/div&gt;&lt;div style=&quot;height: 2px&quot;&gt;&lt;br&gt;&lt;/div&gt;&lt;div style=&quot;height: 2px&quot;&gt;&lt;br&gt;&lt;/div&gt;&lt;div style=&quot;height: 2px&quot;&gt;&lt;br&gt;&lt;/div&gt;&lt;div style=&quot;height: 2px&quot;&gt;&lt;br&gt;&lt;/div&gt;&lt;div style=&quot;height: 2px&quot;&gt;&lt;br&gt;&lt;/div&gt;&lt;div style=&quot;height: 2px&quot;&gt;attack_power)&lt;/div&gt;" style="verticalAlign=top;align=left;overflow=fill;fontSize=12;fontFamily=Helvetica;html=1;" parent="WIyWlLk6GJQsqaUBKTNV-1" vertex="1">
                    <mxGeometry x="-110" y="360" width="140" height="120" as="geometry"/>
                </mxCell>
                <mxCell id="hHB7BAhLzImjpgOIz_nn-56" value="&lt;p style=&quot;margin: 0px ; margin-top: 4px ; text-align: center&quot;&gt;&lt;b&gt;Super Sucker&lt;/b&gt;&lt;/p&gt;&lt;hr size=&quot;1&quot;&gt;+ name: string&lt;br&gt;+ attack_power: int&lt;br&gt;&lt;hr size=&quot;1&quot;&gt;&lt;div style=&quot;height: 2px&quot;&gt;+ __init__(self, name,&lt;/div&gt;&lt;div style=&quot;height: 2px&quot;&gt;&lt;br&gt;&lt;/div&gt;&lt;div style=&quot;height: 2px&quot;&gt;&lt;br&gt;&lt;/div&gt;&lt;div style=&quot;height: 2px&quot;&gt;&lt;br&gt;&lt;/div&gt;&lt;div style=&quot;height: 2px&quot;&gt;&lt;br&gt;&lt;/div&gt;&lt;div style=&quot;height: 2px&quot;&gt;&lt;br&gt;&lt;/div&gt;&lt;div style=&quot;height: 2px&quot;&gt;&lt;br&gt;&lt;/div&gt;&lt;div style=&quot;height: 2px&quot;&gt;&lt;br&gt;&lt;/div&gt;&lt;div style=&quot;height: 2px&quot;&gt;&lt;br&gt;&lt;/div&gt;&lt;div style=&quot;height: 2px&quot;&gt;attack_power)&lt;/div&gt;" style="verticalAlign=top;align=left;overflow=fill;fontSize=12;fontFamily=Helvetica;html=1;" parent="WIyWlLk6GJQsqaUBKTNV-1" vertex="1">
                    <mxGeometry x="-290" y="40" width="140" height="120" as="geometry"/>
                </mxCell>
            </root>
        </mxGraphModel>
    </diagram>
</mxfile>